# xmcd
#
# Track frame offsets:
#	151
#	13455
#	34660
#	48088
#	62361
#	76921
#	89355
#	105296
#	119412
#	137038
#	155023
#	171555
#	187872
#	202635
#	218606
#	244816
#	263088
#	278675
#	292032
#	307663
#	325786
#
# Disc length: 4606 seconds
#
# Revision: 1
# Processed by: cddbd v1.5PL3 Copyright (c) Steve Scherf et al.
# Submitted via: audiograbber 1.81.03
#
DISCID=1611fc15
DTITLE=ALBANO and ROMINA POWER - Limited Edition
DYEAR=1900
DGENRE=Italo Disco
TTITLE0=ALBANO and ROMINA POWER - Prima Notte D'Amore
TTITLE1=ALBANO and ROMINA POWER - Sharazan
TTITLE2=ALBANO and ROMINA POWER - Canto Di Liberta
TTITLE3=ALBANO and ROMINA POWER - Aria Pura
TTITLE4=ALBANO and ROMINA POWER - Felicita
TTITLE5=ALBANO and ROMINA POWER - Il Ballo Del Qua Qua
TTITLE6=ALBANO and ROMINA POWER - Che Angelo Sei
TTITLE7=ALBANO and ROMINA POWER - Meditando
TTITLE8=ALBANO and ROMINA POWER - Perche
TTITLE9=ALBANO and ROMINA POWER - E Fu Subito Amore
TTITLE10=ALBANO and ROMINA POWER - Tu Soltanto Tu
TTITLE11=ALBANO and ROMINA POWER - Io Ti Cerco
TTITLE12=ALBANO and ROMINA POWER - Quando Un Amore Se Ne Va
TTITLE13=ALBANO and ROMINA POWER - Leo, Leo
TTITLE14=ALBANO and ROMINA POWER - Andrea
TTITLE15=ALBANO and ROMINA POWER - Sempre Sempre
TTITLE16=ALBANO and ROMINA POWER - Angeli
TTITLE17=ALBANO and ROMINA POWER - Viaggiando
TTITLE18=ALBANO and ROMINA POWER - Ci Sara
TTITLE19=ALBANO and ROMINA POWER - C'Est Facile
TTITLE20=ALBANO and ROMINA POWER - Liberta
EXTD=
EXTT0=
EXTT1=
EXTT2=
EXTT3=
EXTT4=
EXTT5=
EXTT6=
EXTT7=
EXTT8=
EXTT9=
EXTT10=
EXTT11=
EXTT12=
EXTT13=
EXTT14=
EXTT15=
EXTT16=
EXTT17=
EXTT18=
EXTT19=
EXTT20=
PLAYORDER=
